<?xml version="1.0" encoding="utf-8"?><svg width="136" height="68" viewBox="0 0 136 68" xmlns="http://www.w3.org/2000/svg" xmlns:xlink="http://www.w3.org/1999/xlink"><svg version="1.1" id="mobileNavMinus" viewBox="-131 108.5 68 68" xml:space="preserve" width="68" height="68" xmlns="http://www.w3.org/2000/svg"><style>.ast0{display:none}.ast1{display:inline}.ast2{fill:#dc6a26}.ast3{stroke-width:2}.ast3,.ast4{fill:none;stroke:#dc6a26;stroke-miterlimit:10}.ast5{fill:#dc6900}</style><g id="aLayer_1_1_" class="ast0"><g class="ast1"><path class="ast2" d="M-83 128.5v29h-28v-29h28m1-1h-30v31h30v-31z"/><path class="ast3" d="M-90 143.5h-14M-97 150.5v-14"/></g></g><g id="aLayer_2"><path class="ast2" d="M-83 128.5v29h-28v-29h28m1-1h-30v31h30v-31z"/><path class="ast4" d="M-90 144h-14"/></g><path class="ast5" d="M-105.5 143h17v2h-17z"/></svg><svg version="1.1" id="mobileNavPlus" x="68" viewBox="-131 108.5 68 68" xml:space="preserve" width="68" height="68" xmlns="http://www.w3.org/2000/svg"><style>.bst0{fill:#646463}</style><path class="bst0" d="M-83 128v29h-28v-29h28m1-1h-30v31h30v-31z"/><path class="bst0" d="M-98 134h2v17h-2z"/><path class="bst0" d="M-105.5 141.5h17v2h-17z"/></svg></svg>